<?xml version="1.0" encoding="utf-8" ?><svg xmlns="http://www.w3.org/2000/svg" xmlns:xlink="http://www.w3.org/1999/xlink" width="1024" height="1024" viewBox="0 0 1024 1024"><path fill="#7B3C9F" d="M726.381 319.127C729.59 319.468 741.35 324.002 745.218 325.315C754.555 328.382 763.911 331.392 773.285 334.346C776.648 338.287 780.671 343.534 783.74 347.703C783.62 351.774 783.584 354.616 782.918 358.61C785.212 361.018 787.726 363.314 790.138 365.611C806.134 380.841 822.136 396.598 836.279 413.598C835.972 418.152 834.659 431.469 833.223 435.253L831.69 436.396C825.596 440.881 821.499 446.342 816.434 450.061C793.701 443.245 787.246 444.093 763.867 445.004C761.255 446.767 752.797 453.236 751.678 455.822C750.219 459.193 747.908 468.085 746.762 472.225C743.332 483.493 740.659 494.771 737.081 506.025C734.576 513.906 731.997 530.839 727.662 537.238C721.755 544.185 717.533 550.35 711.283 557.282C704.446 564.865 692.751 583.243 685.151 588.206C680.267 591.395 661.286 589.274 655.442 592.189C653.34 593.238 654.687 611.172 654.123 614.057C653.58 622.804 652.415 631.869 652.673 640.616C652.858 646.911 656.282 654.981 657.532 661.18C660.154 670.42 662.586 683.511 666.279 692.018C669.865 700.279 677.585 711.423 682.567 719.523L648.732 719.912C643.331 712.662 643.714 707.461 641.286 699.067C638.249 699.336 635.187 699.415 632.139 699.534C632.163 694.795 632.296 682.77 631.802 678.596C631.186 673.389 625.828 660.152 623.788 654.691L609.738 617.067C606.807 627.315 607.527 642.763 607.514 653.846L607.531 691.427C614.116 700.85 619.949 709.787 625.285 720.002C614.07 719.953 602.855 719.962 591.64 720.027C587.382 712.54 587.008 708.286 584.673 699.942L575.976 700.111C574.456 678.022 577.383 651.878 573.604 630.053C572.527 623.834 565.438 608.236 562.575 602.064C551.799 604.786 493.046 616.85 485.809 615.848C479.646 614.994 473.074 612.224 467.157 610.291C451.759 605.26 436.377 599.366 420.747 595.17C416.625 606.176 413.045 617.334 409.206 628.452C412.286 635.925 416.117 643.984 419.465 651.405C425.77 664.948 431.758 678.714 438.272 692.142C442.824 701.527 449.19 710.612 454.429 719.773C442.975 719.728 431.566 720.045 420.08 719.901C415.487 712.477 414.915 707.849 412.289 699.523C409.885 699.109 406.213 698.975 403.688 698.807C402.428 694.973 400.658 684.5 399.583 682.161C394.585 671.28 378.904 642.627 371.99 634.118L366.118 639.985C366.916 652.958 370.917 668.782 372.557 682.014C373.841 692.375 385.883 710.13 391.433 719.817C382.37 719.335 367.665 719.971 358.112 719.972C353.147 713.588 352.742 707.721 350.8 700.036C346.823 700.011 345.22 699.937 341.313 699.305C340.501 691.043 341.568 681.011 340.405 673.4C339.798 669.423 333.813 657.36 332.082 652.869C327.034 639.768 320.919 626.335 315.905 613.276C321.394 605.542 328.138 593.385 332.531 584.878C331.335 581.312 330.425 577.643 329.443 574.015C322.886 549.786 317.533 524.849 310.433 500.797C307.233 504.577 286.325 525.023 282.443 526.27C279.232 525.603 277.606 524.643 277.533 521.077C277.366 512.91 277.319 504.738 277.194 496.567L276.389 442C280.176 436.632 291.312 424.081 296.232 419.781C301.879 422.044 307.467 426.074 313.229 428.78C322.387 420.444 331.9 413.042 341.382 405.168C355.131 393.708 368.939 382.32 382.805 371.002C393.671 370.818 404.747 371.359 415.635 371.486C481.939 372.263 548.396 377.35 614.624 378.678C633.334 362.957 653.171 348.207 671.8 332.526C685.359 332.077 686.718 333.993 700.054 327.644C705.417 325.091 720.471 320.225 726.381 319.127ZM609.46 593.494C611.917 592.377 613.215 589.655 612.536 587.043C611.856 584.43 609.396 582.686 606.707 582.908C604.017 583.13 601.876 585.254 601.634 587.943C601.457 589.911 602.34 591.825 603.951 592.968C605.563 594.111 607.661 594.311 609.46 593.494ZM702.539 546.084C705.131 545.381 706.812 542.881 706.487 540.216C706.162 537.551 703.929 535.528 701.244 535.469C698.56 535.409 696.239 537.329 695.795 539.978C695.351 542.626 696.92 545.198 699.477 546.016C700.47 546.334 701.534 546.358 702.539 546.084ZM332.593 635.73C334.363 636.783 336.578 636.731 338.296 635.597C340.014 634.462 340.932 632.445 340.659 630.405C340.386 628.364 338.97 626.659 337.014 626.017C335.482 625.513 333.806 625.725 332.447 626.593C331.089 627.462 330.192 628.894 330.006 630.496C329.761 632.598 330.774 634.648 332.593 635.73Z"/><path fill="#1C1C1C" d="M683.601 374.788C684.12 366.512 683.776 358.038 683.866 349.745C683.9 346.577 683.482 341.216 683.969 338.343C685.43 337.357 685.705 337.69 687.796 337.575C688.556 338.012 688.903 337.983 688.918 338.719C689.08 346.415 688.853 356.281 689.051 363.847C691.958 360.126 693.903 357.543 696.414 353.574C709.05 347.387 726.185 352.69 741.044 352.51C741.073 369.656 741.955 385.413 730.568 400.55C729.012 402.618 723.842 403.835 723.406 406.061C723.962 407.683 724.927 409.664 726.144 410.86C736.543 421.083 746.637 433.251 757.015 443.311L752.773 446.974C742.551 437.027 732.922 426.342 722.709 416.364C721.033 414.727 719.018 412.763 717.536 410.988C716.305 412.409 715.961 413.319 715.143 414.98C718.918 417.93 724.775 424.224 728.402 427.936C735.504 435.175 742.555 442.463 749.554 449.8C746.44 453.546 745.523 453.939 745.241 458.726C744.91 459.616 744.378 461.207 744.001 462.006C742.987 464.334 741.898 468.419 741.145 470.97C729.121 470.453 714.57 470.878 702.43 471C699.219 468.068 691.739 460.828 688.605 458.57C685.758 457.221 687.433 456.682 684.502 455.5C685.45 457.515 685.035 459.909 683.463 461.487C686.515 461.421 686.929 461.836 689.162 463.972C692.524 467.274 696.904 471.827 700.448 474.754C713.448 474.787 727.196 474.411 740.095 474.869L738.08 482.392C724.699 482.364 703.126 482.976 690.422 482.038C690.266 479.208 690.49 477.651 688.783 475.385L687.253 475.265C684.515 478.646 685.035 482.302 685.252 486.424C702.449 486.522 719.647 486.522 736.845 486.424C734.906 493.155 732.908 501.004 730.808 507.565C714.462 507.483 698.115 507.49 681.769 507.586C681.557 511.24 680.646 518.332 683.352 521.194C686.276 520.218 686.025 514.226 686.144 511.584C700.665 511.465 715.186 511.428 729.707 511.474L727.095 521.395L695.158 521.535C691.338 525.298 687.585 529.129 683.902 533.025C683.962 546.443 684.702 569.995 683.657 583.055C681.121 583.275 678.541 583.532 676.003 583.668C676.091 558.434 675.187 530.03 676.059 505.166L680.488 500.737C691.251 500.588 702.015 500.551 712.778 500.626C716.186 500.64 726.8 501.436 728.963 499.581L728.907 498.452C725.562 495.514 715.418 496.901 710.737 496.933L678.721 496.976C676.539 499.159 673.826 501.744 671.809 504.002L672.127 584.327C666.245 584.76 660.37 585.271 654.502 585.86C654.599 582.801 655.344 570.894 653.943 568.883C651.429 569.673 650.506 568.564 647.018 568.34L650.913 571.928C650.954 576.9 650.768 581.165 650.505 586.104C647.198 588.081 635.737 595.896 632.842 595.868C631.561 592.992 640.664 585.044 642.761 582.747C642.356 577.131 642.094 573.113 642.336 567.432C639.579 564.239 637.208 561.232 633.938 558.556L632.547 557.395C626.935 557.347 621.322 557.335 615.71 557.357C612.131 561.124 607.185 565.636 605.339 570.337L605.491 571.212C608.817 571.095 615.239 563.967 617.847 561.236C622.571 561.09 626.097 561.107 630.815 561.349C633.199 564.145 635.991 566.824 638.603 569.427L638.48 581.572C635.196 584.778 631.651 588.117 628.439 591.366L628.557 600.028C626.251 601.375 623.975 602.728 621.619 603.987C620.304 604.933 619.544 605.499 618.089 606.276L615.026 608.536C612.929 610.156 611.586 611.406 609.111 612.375C607.107 613.08 607.146 613.031 605.469 614.307C603.431 617.096 599.852 616.553 596.581 617.171C595.66 617.295 593.958 617.329 592.966 617.382C591.441 617.702 589.949 618.278 588.652 617.65C587.871 604.736 588.64 586.896 588.475 573.503C585.77 570.97 582.991 568.621 580.998 565.503L562.775 565.412C561.165 568.088 560.075 568.987 561.303 572.008C562.753 572.805 561.96 572.649 563.808 572.178C565.056 571.057 565.158 571.046 566.087 569.569C570.266 569.334 574.517 569.021 578.695 569.113C580.69 571.425 582.603 573.496 584.268 576.061C584.909 589.406 584.523 605.319 584.503 618.86C582.76 619.077 577.858 619.863 576.458 619.54C574.339 617.079 573.444 613.28 572.477 610.155C569.421 605.904 568.642 600.933 566.157 596.381C566.2 596.46 563.993 595.446 563.772 595.339C563.218 592.527 563.541 587.32 563.623 584.241C560.698 580.72 556.764 576.521 553.624 573.274C553.209 558.725 553.595 542.294 553.472 527.527L562.567 518.064L562.599 504.51C559.453 501.378 556.078 496.096 552.216 494.696C550.557 495.019 551.311 494.65 550.05 496.14C550.146 498.75 556.824 504.327 558.899 507.079C559.031 510.052 558.911 513.184 558.858 516.172C555.881 519.436 552.884 522.681 549.868 525.909L549.956 575.124C553.828 579.096 556.186 581.661 559.66 586.022L559.546 596.729C548.218 599.357 535.909 601.44 524.422 603.562C524.519 597.353 524.431 590.914 524.431 584.685C526.935 581.853 529.459 579.038 532.004 576.242C531.533 560 531.837 542.245 531.665 525.841C528.142 522.965 525.784 519.986 522.857 516.56L522.996 499.815C526.272 496.756 529.64 493.231 532.818 490.03C541.571 489.773 550.251 490 558.929 489.716C561.964 492.874 566.898 497.702 569.275 501.142C569.456 505.208 568.204 515.881 569.75 517.965C571.586 518.607 570.734 518.657 572.399 518.022C574.55 514.8 573.552 503.413 573.441 498.827C569.168 494.506 565.274 490.499 561.198 485.988L530.709 486.108C527.013 490.524 522.728 493.82 518.999 498.281C518.806 505.573 518.484 510.652 518.861 518.018C521.482 521.286 524.909 524.998 527.71 528.196C528.684 541.65 527.972 560.295 528.309 574.453C525.586 577.508 523.086 580.521 520.483 583.681C520.327 590.546 520.341 597.414 520.523 604.279C518.09 604.543 515.432 605.147 513.01 605.627C512.932 595.868 512.667 585.387 513.01 575.688C512.053 574.682 512.152 574.635 510.817 574.362C507.5 575.817 508.724 587.697 508.79 591.334L509.032 606.233C506.265 606.679 504.705 606.856 502.027 607.776L498.388 608.371C496.421 608.601 489.393 610.508 488.037 610.144C479.481 607.848 455.39 600.964 448.62 597.468C444.62 596.766 440.466 596.169 436.98 593.996C431.41 592.577 425.951 590.755 420.646 588.547C429.882 579.392 441.078 567.546 450.424 558.871C460.888 558.371 470.858 558.887 481.299 558.893C487.389 569.716 500.658 561.973 494.598 552.249C490.506 545.682 483.8 548.531 481.2 555.215C470.522 555.055 459.019 555.086 448.291 555.091C424.041 580.704 398.286 604.85 371.164 627.4L349.316 606.056L327.044 606.032C327.724 604.913 330.209 601.003 330.605 600.036C331.354 598.078 331.365 598.121 332.664 596.446C334.265 594.012 335.206 592.729 337.034 590.457C337.661 588.991 338.166 588.029 338.928 586.624C338.668 584.274 338.038 581.885 337.504 579.569L370.232 579.486C373.419 576.175 377.379 572.589 380.748 569.388L389.249 569.449C391.36 572.049 392.414 573.177 394.859 575.467C401.077 575.923 411.717 575.538 418.262 575.5C423.491 570.663 428.471 565.182 433.59 560.179C437.02 556.826 443.269 552.495 442.842 547.35L442.065 547.028C438.724 548.449 420.948 567.459 416.707 571.586C410.129 571.559 403.55 571.588 396.972 571.673L390.762 565.439L378.997 565.528L368.92 575.443C358.173 575.628 347.091 575.546 336.314 575.591L334.378 568.61C340.605 568.581 351.619 568.229 357.368 568.83C360.783 571.202 363.836 572.075 365.194 567.007C364.76 564.762 363.496 563.239 361.067 563.07C360.008 562.996 358.366 564.577 358.002 564.584C349.787 564.73 341.571 564.825 333.356 564.931L331.174 557.081C330.803 555.993 330.535 554.718 330.257 553.587L329.098 547.434C346.961 547.233 365.118 547.662 382.915 547.258C384.995 544.781 387.324 542.53 389.607 540.237C397.07 540.081 404.534 540.027 411.998 540.073C417.028 543.583 420.846 549.187 425.704 551.424C429.41 553.131 433.718 550.139 434.504 545.819C434.971 543.306 434.355 540.712 432.805 538.678C428.94 533.645 423.909 536.896 420.758 540.614L420.275 541.194C417.539 539.459 416.451 538.524 414.019 536.423L388.01 536.27C385.804 538.392 383.491 540.862 381.335 543.072C364.119 542.977 346.826 543.725 329.604 543.438C327.792 543.407 326.478 541.548 327.083 539.586C329.898 537.51 336.634 538.377 340.283 538.39C348.15 538.455 356.017 538.44 363.884 538.344C364.855 537.589 367.966 534.591 368.962 534.49C372.292 534.273 374.943 538.193 378.547 536.532C383.012 534.474 384.848 530.22 382.54 525.773C381.245 522.03 376.979 520.641 373.626 523.074C368.703 526.648 367.863 530.581 362.609 534.55C350.329 534.462 338.048 534.51 325.768 534.691C325.028 532.157 324.313 529.615 323.623 527.067C323.201 526.017 322.913 524.578 322.635 523.447C321.88 520.658 321.204 517.848 320.609 515.021L339.9 515.086C342.833 510.733 351.47 504.28 350.464 499.911C349.371 498.625 350.046 498.972 348.385 498.812C345.27 500.261 340.858 507.34 337.915 510.769C331.828 510.982 325.327 510.939 319.204 510.994C318.511 499.565 318.522 487.662 318.37 476.18C324.932 471.243 325.965 465.197 318.089 461.076C318.228 455.657 318.491 447.841 324.545 445.576L325.51 446.639C325.567 450.627 325.51 454.673 326.133 458.605C327.461 460.48 329.191 462.404 330.693 464.17C330.293 471.826 330.539 481.552 330.521 489.362C328.465 491.597 326.172 494.001 325.573 497.08C325.198 499.009 325.469 501.055 326.627 502.678C327.916 504.484 330.027 505.505 332.208 505.691C334.354 505.874 336.643 505.24 338.208 503.717C339.661 502.303 340.219 500.307 340.194 498.32C340.152 495.022 338.313 494.179 336.232 492.135C332.933 488.895 334.473 468.069 334.481 462.803C332.597 460.65 331.225 458.685 329.573 456.373C329.738 452.529 329.526 447.779 329.454 443.868C331.642 441.269 334.198 438.709 336.568 436.247C336.479 429.95 336.541 423.499 336.532 417.188C338.41 415.339 341.499 412.839 343.566 411.07C344.494 408.798 345.312 408.601 347.464 407.546C349.902 405.768 352.073 403.966 354.398 402.051C354.529 413.503 354.513 424.956 354.349 436.408C356.53 439.037 358.821 441.593 360.518 444.548C360.506 447.451 359.717 458.043 359.898 459.308C361.42 460.683 360.916 460.616 362.669 460.986L363.657 460.145C365.237 455.893 364.208 446.218 363.655 441.546C361.019 438.637 360.09 437.685 358.067 434.339C358.487 423.24 358.205 410.553 358.146 399.324C363.869 394.081 374.239 385.619 380.483 380.977C385.763 381.01 390.983 380.962 396.245 381.429C397.839 383.345 400.874 386.271 402.722 388.147L478.103 387.857C480.237 385.646 480.763 385.068 483.407 383.352C488.315 383.011 493.02 383.029 497.929 383.008C500.609 385.36 502.58 387.656 504.951 390.309C505.108 394.648 505.089 397.796 504.87 402.132C503.246 404.054 500.557 406.643 498.722 408.508C493.55 409.047 488.379 408.943 483.201 408.606L478.767 403.358C466.727 403.451 454.685 403.466 442.644 403.405C436.787 410.408 427.966 418.821 421.377 425.448C415.178 425.613 408.643 425.553 402.403 425.625C400.343 426.973 397.745 428.899 395.368 429.067C394.848 428.59 394.321 428.121 393.787 427.66C390.512 424.849 386.518 422.056 383.067 426.68C378.01 433.457 381.847 440.525 390.371 438.831C393.216 438.266 394.402 436.351 395.749 433.919L396.085 433.298C407.1 427.86 410.805 429.499 422.733 429.266C429.735 422.961 438.204 414.039 444.926 407.203C454.549 406.735 466.889 407.082 476.705 407.096L482.619 412.814L500.179 412.605C502.866 410.347 506.342 406.742 508.924 404.217C509.023 398.636 508.982 393.053 508.8 387.474C505.099 384.782 504.026 383.528 501.265 380.073C505.18 380.61 510.019 380.492 514.039 380.513C514.172 384.281 514.233 388.05 514.22 391.82C517.043 395 526.017 406.417 530.133 405.382C530.699 401.76 520.819 392.753 518.163 390.026C518.292 387.053 518.255 383.98 518.265 380.996C520.247 380.98 523.738 380.657 525.048 381.707C526.466 387.443 530.944 390.044 535.528 395.004C535.52 401.628 536.07 434.011 534.703 438.119C532.666 439.976 526.77 439.506 523.758 439.507C521.209 442.033 518.577 444.88 516.072 447.484C515.872 457.019 516.325 469.909 515.63 479.747C515.591 480.302 516.95 480.701 517.036 483.159C515.547 485.472 513.354 485.575 511.174 487.855C511.066 490.184 510.717 489.255 511.723 490.914L512.995 491.218C517.419 490.298 520.816 485.231 523.654 481.684C537.666 481.574 551.679 481.538 565.692 481.574C568.03 484.282 573.618 491.754 576.971 491.59L577.443 490.698C577.559 486.907 573.79 484.714 570.717 480.551C570.984 469.298 570.997 451.654 570.852 439.902C570.582 439.532 570.311 439.163 570.04 438.793C568.24 438.244 569.087 438.204 567.409 438.776C566.363 440.672 566.802 472.622 566.648 477.568L520.868 477.715C520.029 470.557 520.464 456.451 520.518 448.768C526.178 442.251 526.002 442.402 534.626 443.702C536.064 442.164 537.591 440.342 538.998 438.742C539.932 425.056 539.48 407.129 539.473 393.073C535.555 389.326 531.901 386.016 528.92 381.476L545.511 381.775L549.099 382.121C550.752 382.219 552.843 382.123 554.122 383.003C554.777 387.597 554.387 404.731 554.345 410.121C554.211 427.183 554.303 444.571 554.004 461.626C551.954 461.657 549.048 461.504 547.237 462.221C546.7 463.481 546.791 463.422 547.086 464.785C549.903 467.314 558.873 466.54 562.311 465.387C562.675 463.909 562.937 463.602 562.341 462.232C561.146 461.448 560.243 461.508 558.815 461.373C557.113 459.07 558.516 390.432 558.497 382.557C561.657 382.758 565.337 383.094 568.455 382.689C570.156 382.476 570.33 382.296 571.873 383.063C574.727 383.73 577.631 383.565 580.585 383.572L580.647 400.163C583.376 403.433 587.7 409.286 591.697 410.15L592.44 409.65C592.428 405.927 587.361 401.446 584.762 398.762C584.589 393.733 584.51 388.701 584.525 383.669C589.219 383.87 594.792 383.963 599.407 384.358C599.47 391.849 599.688 399.516 599.281 406.991C597.356 409.677 595.976 411.811 599.472 414.465C601.446 415.964 606.679 413.002 605.044 409.673C602.276 404.035 603.418 390.837 603.458 384.519L610.488 384.481C611.671 384.588 613.013 384.645 614.147 384.913C617.592 384.697 627.638 375.467 630.948 372.663L630.824 382.771C615.971 389.917 633.299 406.146 639.935 391.829C641.609 388.218 637.497 384.172 634.533 382.428C634.479 379.388 634.537 373.27 634.163 370.482L641.347 364.248L641.576 370.686L647.478 377.007C648.323 385.386 648.019 397.015 648.02 405.619C652.666 410.426 657.344 415.203 662.054 419.949C662.242 423.69 662.402 426.965 662.331 430.707C665.174 432.704 668.274 436.022 670.793 438.543C675.707 438.656 679.856 438.773 684.783 438.453L692.587 430.782C692.54 424.329 692.428 417.878 692.252 411.428C690.153 408.128 689.047 406.072 686.128 403.453L679.612 403.283C676.789 401.192 675.541 399.579 673.431 396.803C672.307 384.654 675.284 382.823 683.601 374.788ZM609.46 593.494C611.917 592.377 613.215 589.655 612.536 587.043C611.856 584.43 609.396 582.686 606.707 582.908C604.017 583.13 601.876 585.254 601.634 587.943C601.457 589.911 602.34 591.825 603.951 592.968C605.563 594.111 607.661 594.311 609.46 593.494Z"/><path fill="#14BE72" d="M615.817 519.946C610.541 504.82 628.532 505.752 630.137 516.544C630.863 521.425 621.701 522.821 618.494 522.99L610.776 531.119C610.777 538.303 610.886 545.485 611.102 552.665C606.375 557.54 601.073 562.789 596.498 567.759C596.551 584.077 596.814 600.898 596.581 617.171C595.66 617.295 593.958 617.329 592.966 617.382C592.795 600.21 592.905 583.107 592.616 565.935C597.611 561.077 602.447 556.457 606.97 551.147C606.917 543.929 606.926 536.71 606.996 529.493C609.924 526.326 612.929 523.14 615.817 519.946Z"/><path fill="#1E2522" d="M620.217 512.291C622.051 511.324 624.322 512.022 625.295 513.853C626.268 515.684 625.576 517.958 623.748 518.936C621.912 519.919 619.628 519.223 618.65 517.385C617.673 515.546 618.375 513.263 620.217 512.291Z"/><path fill="#15505C" d="M605.266 596.203C600.361 596.7 597.199 591.578 598.165 586.976C598.626 584.718 599.992 582.748 601.945 581.523C605.668 579.183 608.575 580.11 612.587 580.92L613.051 581.312C616.649 584.391 616.387 585.271 616.751 590.031L616.054 592.577L617.462 593.481L620.493 591.095C620.381 594.02 619.607 602.012 621.619 603.987C620.304 604.933 619.544 605.499 618.089 606.276L615.026 608.536C612.929 610.156 611.586 611.406 609.111 612.375C607.107 613.08 607.146 613.031 605.469 614.307C605.453 608.272 605.385 602.237 605.266 596.203ZM609.46 593.494C611.917 592.377 613.215 589.655 612.536 587.043C611.856 584.43 609.396 582.686 606.707 582.908C604.017 583.13 601.876 585.254 601.634 587.943C601.457 589.911 602.34 591.825 603.951 592.968C605.563 594.111 607.661 594.311 609.46 593.494Z"/><path fill="#24F1F3" fill-opacity="0.98823529" d="M601.634 587.943C601.876 585.254 604.017 583.13 606.707 582.908C609.396 582.686 611.856 584.43 612.536 587.043C613.215 589.655 611.917 592.377 609.46 593.494C607.661 594.311 605.563 594.111 603.951 592.968C602.34 591.825 601.457 589.911 601.634 587.943Z"/><path fill="#1C1C1C" d="M620.493 591.095C620.381 594.02 619.607 602.012 621.619 603.987C620.304 604.933 619.544 605.499 618.089 606.276L615.026 608.536C612.929 610.156 611.586 611.406 609.111 612.375C608.991 610.142 609.07 607.508 609.081 605.242C610.179 599.862 607.584 598.694 612.868 595.168C614.363 593.553 614.268 593.126 616.054 592.577L617.462 593.481L620.493 591.095Z"/><path fill="#311E33" d="M620.493 591.095C620.381 594.02 619.607 602.012 621.619 603.987C620.304 604.933 619.544 605.499 618.089 606.276L615.026 608.536C614.472 604.198 616.529 598.767 614.856 595.55L612.868 595.168C614.363 593.553 614.268 593.126 616.054 592.577L617.462 593.481L620.493 591.095Z"/><path fill="#14BE72" d="M605.266 596.203C601.566 593.226 601.244 592.737 601.634 587.943C601.457 589.911 602.34 591.825 603.951 592.968C605.563 594.111 607.661 594.311 609.46 593.494C609.283 597.447 609.107 601.285 609.081 605.242C609.07 607.508 608.991 610.142 609.111 612.375C607.107 613.08 607.146 613.031 605.469 614.307C605.453 608.272 605.385 602.237 605.266 596.203Z"/><path fill="#14BE72" d="M545.511 381.775L549.099 382.121C549.758 403.038 549.319 425.109 549.011 446.071C547.789 447.522 539.211 456.373 539.018 457.543C538.553 462.561 541.327 467.491 534.506 468.866C527.134 470.351 522.271 461.768 527.69 456.384C529.842 454.245 533.777 455.601 535.396 454.505C538.495 452.404 542.917 447.26 545.417 444.499C545.212 423.592 545.243 402.682 545.511 381.775Z"/><path fill="#1E2522" d="M531.898 458.227C533.818 457.857 535.695 459.046 536.179 460.941C536.664 462.835 535.59 464.779 533.727 465.377C532.419 465.797 530.987 465.456 530.007 464.494C529.027 463.531 528.662 462.104 529.059 460.789C529.456 459.474 530.549 458.487 531.898 458.227Z"/><path fill="#14BE72" d="M400.141 553.544C406.943 542.158 419.021 551.431 412.508 560.103C408.929 564.868 403.744 563.004 400.759 558.241L400.4 557.676C400.33 557.561 400.261 557.447 400.191 557.332C377.243 556.913 354.149 557.338 331.174 557.081C330.803 555.993 330.535 554.718 330.257 553.587C353.551 553.412 376.846 553.397 400.141 553.544Z"/><path fill="#1E2522" d="M406.114 551.778C408.01 551.199 410.028 552.198 410.717 554.056C411.406 555.915 410.526 557.988 408.711 558.784C407.439 559.342 405.962 559.15 404.875 558.284C403.789 557.418 403.271 556.022 403.531 554.657C403.791 553.292 404.785 552.184 406.114 551.778Z"/><path fill="#14BE72" d="M610.488 384.481C611.671 384.588 613.013 384.645 614.147 384.913C613.819 389.811 614.09 397.866 614.09 403.045L613.981 436.904C616.417 439.087 619.898 443.605 622.648 445.067C624.865 445.933 629.345 445.1 630.873 447.27C633.061 450.378 632.744 455.579 629.508 457.983C627.859 459.19 625.8 459.695 623.78 459.388C617.533 458.442 617.107 452.831 618.562 448.448C619.209 446.5 612.304 440.343 610.481 438.569C610.321 420.54 610.324 402.51 610.488 384.481Z"/><path fill="#1E2522" d="M623.978 448.283C625.35 447.977 626.779 448.452 627.695 449.519C628.611 450.585 628.864 452.07 628.354 453.38C627.844 454.69 626.654 455.613 625.258 455.779C623.244 456.02 621.395 454.639 621.054 452.64C620.712 450.641 621.998 448.725 623.978 448.283Z"/><path fill="#14BE72" d="M386.136 586.704C388.623 582.833 392.742 579.28 397.359 582.546C399.167 583.849 400.357 585.84 400.648 588.05C401.706 595.552 391.744 600.04 386.14 590.508C369.772 590.375 353.403 590.358 337.034 590.457C337.661 588.991 338.166 588.029 338.928 586.624C353.282 587.294 371.554 586.751 386.136 586.704Z"/><path fill="#1E2522" d="M392.714 584.755C394.735 584.325 396.733 585.572 397.236 587.577C397.739 589.581 396.565 591.624 394.58 592.199C393.23 592.59 391.775 592.212 390.786 591.215C389.796 590.217 389.43 588.759 389.832 587.413C390.234 586.066 391.339 585.047 392.714 584.755Z"/><path fill="#14BE72" d="M436.98 593.996C444.041 593.667 475.586 594.544 479.198 592.935C480.848 590.716 482.278 588.113 485.21 587.85C496.293 586.854 495.715 602.71 485.776 602.651C482.846 602.634 480.499 599.711 479.199 597.328C469.442 597.328 458.354 597.157 448.62 597.468C444.62 596.766 440.466 596.169 436.98 593.996Z"/><path fill="#1E2522" d="M484.5 591.792C485.753 591.148 487.258 591.239 488.425 592.029C489.592 592.819 490.236 594.182 490.104 595.585C489.972 596.988 489.086 598.208 487.793 598.767C485.882 599.592 483.662 598.754 482.773 596.872C481.885 594.99 482.648 592.743 484.5 591.792Z"/><path fill="#14BE72" d="M352.519 516.378C352.726 512.428 352.429 509.085 355.408 506.177C356.593 505.021 358.193 504.389 359.848 504.423C366.245 504.57 369.938 512.97 364.106 517.307C363.555 517.71 362.992 518.098 362.42 518.47C360.383 518.472 358.164 518.536 356.154 518.329C352.609 521.184 350.389 523.39 347.154 526.64C339.308 526.567 331.462 526.709 323.623 527.067C323.201 526.017 322.913 524.578 322.635 523.447C330.282 522.983 338.083 523.024 345.755 522.979C347.763 520.96 350.402 518.165 352.519 516.378Z"/><path fill="#1E2522" d="M359.652 507.734C361.658 507.625 363.387 509.133 363.55 511.136C363.714 513.138 362.253 514.907 360.256 515.125C358.915 515.271 357.6 514.678 356.822 513.575C356.045 512.473 355.927 511.035 356.516 509.821C357.104 508.606 358.305 507.807 359.652 507.734Z"/><path fill="#14BE72" d="M347.464 407.546C347.273 418.373 347.557 429.171 347.422 439.962C352.127 441.997 354.748 446.182 351.94 451.032C351.096 452.484 349.701 453.533 348.072 453.94C345.878 454.486 343.557 454.132 341.625 452.958C335.248 449.142 338.314 442.792 343.6 439.638C343.547 430.611 343.88 419.868 343.566 411.07C344.494 408.798 345.312 408.601 347.464 407.546Z"/><path fill="#201C21" d="M343.377 443.412C345.203 443.361 345.88 443.206 347.581 443.925C349.905 446.614 348.932 448.667 346.871 451.241C341.498 450.257 340.984 447.88 343.377 443.412Z"/><path fill="#1E2522" d="M689.162 463.972C683.388 467.15 685.251 467.64 677.542 467.441C668.023 467.195 667.655 454.493 674.098 450.066C676.36 448.51 679.158 447.942 681.847 448.493C686.557 449.419 690.141 453.756 688.605 458.57C685.758 457.221 687.433 456.682 684.502 455.5C685.45 457.515 685.035 459.909 683.463 461.487C686.515 461.421 686.929 461.836 689.162 463.972Z"/><path fill="#24F1F3" d="M683.463 461.487C681.834 463.123 679.332 463.514 677.281 462.453C675.231 461.392 674.105 459.124 674.5 456.849C674.894 454.574 676.718 452.817 679.006 452.509C681.295 452.2 683.519 453.411 684.502 455.5C685.45 457.515 685.035 459.909 683.463 461.487Z"/><path fill="#14BE72" d="M572.692 590.941C568.585 588.676 565.068 583.814 567.99 579.755C575.731 569.003 588.464 583.66 577.386 590.378C576.039 591.195 576.433 596.079 576.418 597.737C576.39 605.005 576.403 612.273 576.458 619.54C574.339 617.079 573.444 613.28 572.477 610.155C572.673 603.752 572.745 597.346 572.692 590.941Z"/><path fill="#1E2522" d="M572.972 579.684C574.909 578.897 577.123 579.773 577.998 581.672C578.873 583.572 578.1 585.824 576.242 586.785C574.962 587.447 573.422 587.352 572.234 586.538C571.045 585.724 570.4 584.323 570.554 582.89C570.708 581.458 571.637 580.226 572.972 579.684Z"/><path fill="#15505C" d="M369.201 603.995C372.455 600.188 377.66 601.875 380.771 604.943C382.738 606.882 382.961 608.487 383.479 611.065C383.469 612.164 383.446 613.043 383.365 614.139C378.125 620.721 372.611 621.328 365.871 616.295C365.164 611.99 364.231 609.71 367.565 606.535C368.018 607.121 368.879 608.153 369.203 608.754L371.685 606.154C371.02 605.694 369.853 604.578 369.201 603.995Z"/><path fill="#24F1F3" d="M371.685 606.154C373.62 605.456 375.256 604.975 377.195 606.004C385.815 610.577 376.268 620.724 370.393 615.413C368.759 613.937 368.856 610.712 369.203 608.754L371.685 606.154Z"/><path fill="#7B3C9F" d="M616.751 590.031C618.125 588.594 620.993 585.942 620.893 583.943C620.588 577.901 613.142 575.402 618.873 568.958C621.807 565.658 626.417 565.682 629.469 568.741C631.072 570.338 631.89 572.56 631.708 574.815C631.384 579.214 629.59 580.095 625.82 581.575C623.698 583.851 623.968 587.767 621.436 589.94C621.121 590.325 620.807 590.71 620.493 591.095L617.462 593.481L616.054 592.577L616.751 590.031Z"/><path fill="#201C21" d="M622.397 570.815C624.15 569.822 626.375 570.418 627.397 572.154C628.418 573.89 627.859 576.124 626.14 577.174C625.003 577.869 623.579 577.897 622.416 577.247C621.252 576.596 620.53 575.369 620.526 574.036C620.522 572.703 621.238 571.472 622.397 570.815Z"/><path fill="#15505C" d="M508.79 591.334C508.707 588.278 508.6 584.814 508.69 581.839C508.859 576.252 507.407 576.823 504.164 572.913C503.01 571.454 501.703 568.305 502.303 566.473C504.803 560.977 513.087 556.771 517.291 563.384C520.237 568.019 517.477 578.047 513.01 575.688C512.053 574.682 512.152 574.635 510.817 574.362C507.5 575.817 508.724 587.697 508.79 591.334Z"/><path fill="#24F1F3" d="M508.783 563.288C510.597 562.513 512.688 562.785 514.243 563.997C515.799 565.21 516.572 567.172 516.263 569.12C515.953 571.067 514.61 572.693 512.756 573.364C509.998 574.362 506.947 572.985 505.872 570.257C504.796 567.529 506.086 564.44 508.783 563.288Z"/><path fill="#15505C" d="M719.923 454.776C723.03 452.996 723.958 452.525 727.35 451.343C730.676 453.098 734.341 455.305 736.418 458.498L731.997 458.884L732.084 461.976L736.413 462.008C732.176 471.5 713.825 470.033 719.923 454.776Z"/><path fill="#24F1F3" d="M732.084 461.976C731.084 463.376 729.05 465.443 727.213 465.302C714.876 464.35 724.207 447.842 731.997 458.884L732.084 461.976Z"/><path fill="#14BE72" d="M568.455 382.689C570.156 382.476 570.33 382.296 571.873 383.063L571.844 386.273C571.834 387.024 571.877 387.829 571.834 388.572C571.701 390.843 573.474 391.431 574.702 392.985C576.867 395.896 578.686 400.931 575.063 403.683C570.454 407.185 560.912 403.397 562.394 396.917C562.913 394.648 565.761 391.645 567.895 390.839C568.06 390.755 568.226 390.671 568.392 390.588L568.455 382.689Z"/><path fill="#201C21" d="M567.648 394.478C569.534 394.37 570.092 394.242 571.955 394.744C574.516 397.023 573.357 398.854 571.896 401.531C566.162 402.572 565.397 398.826 567.648 394.478Z"/><path fill="#7B3C9F" d="M489.233 570.215C484.366 570.919 469.3 570.514 463.183 570.689C461.836 571.645 461.121 572.39 459.491 572.443C454.251 570.275 456.413 561.566 463.602 566.731C471.343 566.609 479.26 566.417 486.996 566.451C491.023 566.469 492.021 566.899 494.571 569.723L489.233 570.215Z"/><path fill="#14BE72" d="M332.664 596.446C342.376 596.457 352.381 596.342 362.068 596.527C363.39 597.736 365.076 599.379 366.42 600.486C367.3 602.132 367.935 602.665 369.201 603.995C369.853 604.578 371.02 605.694 371.685 606.154L369.203 608.754C368.879 608.153 368.018 607.121 367.565 606.535C366.454 605.842 361.682 601.059 360.524 599.921C350.551 599.836 340.577 599.875 330.605 600.036C331.354 598.078 331.365 598.121 332.664 596.446Z"/><path fill="#14BE72" d="M494.571 569.723C494.727 569.963 496.089 572.977 495.079 572.398C498.113 574.137 499.723 575.497 501.902 578.227L502.027 607.776L498.388 608.371C498.471 598.833 498.491 589.295 498.449 579.757C495.457 575.944 492.864 573.356 489.233 570.215L494.571 569.723Z"/><path fill="#A152CB" d="M647.018 568.34C644.859 566.091 641.863 563.586 641.489 560.555C642.203 559.019 641.67 559.613 643.195 558.758C645.558 559.034 650.852 566.299 653.3 567.836C653.397 567.897 653.942 568.881 653.943 568.883C651.429 569.673 650.506 568.564 647.018 568.34Z"/><path fill="#201C21" d="M366.42 600.486C367.899 600.602 367.337 600.477 368.695 601.242C372.599 600.875 375.68 599.458 379.743 600.954C384.366 602.657 384.563 606.865 383.479 611.065C382.961 608.487 382.738 606.882 380.771 604.943C377.66 601.875 372.455 600.188 369.201 603.995C367.935 602.665 367.3 602.132 366.42 600.486Z"/><path fill="#14BE72" d="M736.418 458.498C739.518 458.694 742.135 458.726 745.241 458.726C744.91 459.616 744.378 461.207 744.001 462.006L736.413 462.008L732.084 461.976L731.997 458.884L736.418 458.498Z"/><path fill="#7B3C9F" d="M715.143 414.98C714.869 412.428 713.652 407.581 717.023 407.06L718.083 407.919C718.327 409.966 718.438 408.969 717.536 410.988C716.305 412.409 715.961 413.319 715.143 414.98Z"/><path fill="#7B3C9F" d="M563.794 414.972C568.664 414.893 575.157 414.642 579.626 415.653C606.079 421.635 592.149 452.502 601.372 469.09C604.173 474.127 611.173 475.601 616.51 476.722L616.575 487.329C601.798 489.605 599.031 494.83 597.83 509.535C596.64 524.099 598.563 537.788 584.471 546.14C577.763 548.82 571.093 548.442 563.98 548.453L563.942 534.444C581.121 534.521 580.527 532.364 581.987 515.293C583.258 500.436 582.062 492.633 593.373 481.895C576.332 466.439 586.591 439.397 578.032 431.226C575.101 428.428 567.748 429.324 563.873 429.319L563.794 414.972Z"/><path fill="#7B3C9F" d="M468.436 414.726L476.069 414.63L476.11 429.133C473.167 429.123 464.92 428.901 462.816 430.56C456.863 435.254 458.439 452.461 457.097 460.113C455.347 470.093 454.546 475.353 446.339 481.903C464.639 496.316 453.633 524.378 461.834 531.967C465.028 534.922 471.824 534.251 475.966 534.319L475.909 548.469C470.734 548.461 466.218 548.515 461.055 547.879C439.804 542.594 444.113 521.712 441.991 504.889C440.424 492.466 434.852 489.259 423.444 487.547L423.416 476.56C433.619 474.739 439.894 472.725 441.584 461.219C444.74 439.734 438.042 415.882 468.436 414.726Z"/><path fill="#14BE72" d="M512.752 415.637C515.482 415.338 521.14 415.422 524.095 415.383L524.298 429.551C510.01 429.43 507.625 432.123 506.874 446.596C506.163 460.291 506.456 472.699 495.39 482.251C512.963 495.885 501.89 523.06 510.923 532.149C513.606 534.849 520.777 534.16 524.224 534.131C524.479 538.654 524.331 543.638 524.29 548.202C520.877 548.365 517.348 548.177 513.926 548.067C492.883 547.668 492.19 527.971 491.323 512.098C490.512 497.266 488.941 489.588 472.507 487.761L472.519 476.705C491.128 474.507 490.342 464.889 491.517 449.097C492.737 432.697 493.098 418.531 512.752 415.637Z"/><path fill="#14BE72" d="M625.883 415.874C629.802 415.802 635.758 415.78 639.288 416.456C666.716 421.707 652.254 453.343 661.968 469.97C664.61 474.491 671.093 475.851 676.128 476.681C676.088 480.214 676.227 483.816 676.324 487.354C659.965 490.455 659.262 496.536 658.222 511.851C657.308 525.316 658.746 538.073 645.606 545.762C639.284 548.744 632.866 548.156 626.029 548.066L626.064 534.35C629.061 534.343 638.185 534.557 639.44 531.627C647.138 513.65 637.447 496.594 654.936 482.034C635.987 468.845 647.859 441.453 639.042 432.724C635.537 429.253 630.438 429.68 625.908 429.616C625.765 425.115 625.861 420.393 625.883 415.874Z"/><path fill="#14BE72" d="M422.851 438.487C423.945 440.007 423.465 452.586 423.448 455.343L373.87 482.441C389.259 491.437 407.762 501.702 423.504 509.991L423.415 527.053L411.143 520.025C392.02 509.055 372.81 498.236 353.516 487.569L353.478 477.37C376.716 464.613 399.841 451.651 422.851 438.487Z"/><path fill="#7B3C9F" d="M708.176 357.565C716.888 357.145 725.636 358.638 734.321 359.694C734.718 372.876 734.211 378.587 727.702 391.172C724.305 397.738 714.15 399.217 707.045 400.879C704.828 401.269 699.645 402.328 697.781 401.666C694.094 400.356 683.56 396.757 681.65 393.513C682.276 388.964 697.67 364.18 700.906 359.634C703.309 358.753 705.699 358.2 708.176 357.565Z"/><path fill="#14BE72" d="M397.458 393.999C426.446 394.074 455.855 393.977 484.76 393.198C483.046 393.244 493.956 382.554 498.192 393.033C500.539 398.84 497.028 401.865 491.658 403.602C487.406 402.948 486.026 401.101 484.002 397.502L397.919 397.518C389.548 412.791 373.789 393.173 390.299 388.536C394.092 388.861 395.495 391.046 397.458 393.999Z"/><path fill="#1E2522" d="M389.301 392.188C391.344 391.639 393.453 392.812 394.063 394.838C394.673 396.863 393.563 399.006 391.557 399.677C390.205 400.129 388.714 399.809 387.666 398.843C386.617 397.877 386.177 396.417 386.517 395.032C386.858 393.648 387.924 392.558 389.301 392.188Z"/><path fill="#1E2522" d="M489.918 392.365C491.795 391.445 494.062 392.21 495 394.078C495.937 395.946 495.195 398.221 493.335 399.176C491.451 400.144 489.139 399.389 488.188 397.495C487.238 395.602 488.015 393.297 489.918 392.365Z"/><path fill="#14BE72" d="M538.607 501.556C549.261 501.089 551.9 510.934 542.979 516.052L542.979 581.032C550.364 585.436 550.408 591.914 542.514 595.775C541.905 595.764 541.297 595.733 540.691 595.681C536.639 595.306 533.028 592.321 533.662 587.94C534.228 584.032 536.335 582.611 539.282 580.459L539.103 516.376C532.377 511.591 530.896 506.626 538.607 501.556Z"/><path fill="#1E2522" d="M539.05 584.885C540.337 584.22 541.887 584.322 543.076 585.15C544.265 585.978 544.898 587.396 544.721 588.834C544.544 590.272 543.585 591.494 542.23 592.008C540.294 592.743 538.121 591.84 537.276 589.949C536.432 588.057 537.21 585.836 539.05 584.885Z"/><path fill="#1E2522" d="M539.03 505.288C540.931 504.295 543.277 505.021 544.285 506.914C545.292 508.807 544.585 511.159 542.699 512.181C540.793 513.215 538.41 512.498 537.391 510.584C536.372 508.67 537.108 506.292 539.03 505.288Z"/><path fill="#7B3C9F" d="M428.196 402.847C430.148 403.307 431.405 403.244 431.957 405.293C430.441 407.858 420.283 417.481 417.643 420.072C406.956 419.728 395.864 420.004 385.178 419.987C380.12 419.979 370.405 420.964 366.156 420.109C365.106 416.763 365.151 410.367 370.34 412.452C370.853 413.199 371.392 414.159 372.032 414.792C374.033 416.771 410.245 415.991 415.762 415.969C419.937 412.337 424.71 407.141 428.196 402.847Z"/><path fill="#7B3C9F" d="M661.974 532.779C662.586 530.487 662.106 530.894 663.627 529.666L664.805 529.53C666.761 531.571 665.803 535.867 665.583 538.655L665.511 552.344C666.567 553.232 667.681 554.195 668.564 555.258C669.984 556.989 670.608 559.238 670.281 561.453C670.01 563.381 668.917 565.098 667.283 566.158C661.296 570.053 657.054 564.515 654.359 559.997C656.088 555.531 657.384 554.753 661.439 552.484C661.335 545.954 661.076 539.229 661.974 532.779Z"/><path fill="#5B2D72" d="M661.974 532.779C662.586 530.487 662.106 530.894 663.627 529.666L664.805 529.53C666.761 531.571 665.803 535.867 665.583 538.655C665.363 536.393 665.922 535.332 665.193 533.094C663.849 532.25 663.989 532.583 661.974 532.779Z"/><path fill="#201C21" d="M661.516 556.735C662.749 556.177 664.189 556.341 665.266 557.161C666.343 557.982 666.883 559.328 666.672 560.665C666.46 562.002 665.532 563.116 664.255 563.565C662.395 564.218 660.35 563.291 659.616 561.461C658.882 559.631 659.72 557.548 661.516 556.735Z"/><path fill="#7B3C9F" d="M695.971 410.187C697.347 410.269 698.206 410.152 699.271 410.995C700.109 416.149 699.894 437.815 699.939 444.537C704.821 449.912 709.897 454.895 715.057 459.996C715.817 460.748 715.228 462.632 715.064 463.574C710.473 463.702 699.745 450.645 695.993 446.632C695.838 437.241 695.349 419.011 695.971 410.187Z"/><path fill="#7B3C9F" d="M364.747 398.968C367.435 398.953 370.112 399.115 372.798 399.242C374.94 401.776 378.741 404.967 381.323 407.266C389.29 406.646 397.315 407.451 405.285 406.421C407.185 406.176 409.613 405.556 411.004 406.269C411.786 407.914 411.322 408.832 410.884 410.638C409.041 411.818 404.686 411.005 402.197 410.974L378.768 410.909C376.371 408.639 373.817 405.942 371.471 403.573C369.487 403.606 367.14 403.892 365.44 403.036C364.366 401.144 364.733 401.483 364.747 398.968Z"/><path fill="#7B3C9F" d="M447.871 574.207C448.576 574.543 450.683 575.956 451.451 576.449C456.445 576.48 486.821 575.59 488.851 576.852C489.602 578.414 489.466 578.481 489.266 580.162C488.124 581.745 488.319 581.285 486.112 582.101C485.882 582.02 485.642 581.963 485.422 581.858C484.485 581.413 483.834 580.898 482.815 580.603C475.629 578.521 449.318 582.507 445.439 580.436C443.665 577.682 445.765 575.828 447.871 574.207Z"/><path fill="#7B3C9F" d="M708.553 408.128L709.822 409.077C710.985 412.155 710.3 427.882 710.209 432.278C713.373 435.662 720.553 442.105 722.701 446.129C722.995 446.68 722.253 447.633 721.842 448.41C717.835 447.67 709.697 437.759 706.371 434.143C706.509 426.597 706.159 418.742 706.646 411.191C706.774 409.207 707.25 409.185 708.553 408.128Z"/><path fill="#7B3C9F" d="M716.812 426.165C720.022 426.976 734.927 442.821 737.714 446.007C737.903 447.811 737.572 447.727 736.708 449.67C734.829 449.088 718.922 432.782 716.361 430.297C715.828 428.055 716.022 428.694 716.812 426.165Z"/><path fill="#7B3C9F" d="M598.6 544.83C600.818 544.924 601.209 544.915 601.717 546.95C600.464 550.76 590.707 559.94 587.329 563.378L586.708 563.324C585.035 562.081 585.61 562.857 584.888 560.934C585.512 558.464 595.875 548.13 598.6 544.83Z"/><path fill="#5B2D72" d="M651.599 548.737C652.806 548.964 652.23 548.751 653.222 549.676C653.903 552.844 654.237 555.377 651.567 557.402L649.474 557.369C646.953 554.212 649.007 550.901 651.599 548.737Z"/><path fill="#1C1C1C" d="M670.671 370.519C672.475 370.427 673.049 370.536 674.622 369.609C676.695 364.921 671.25 341.129 676.973 337.301C678.354 337.277 678.39 337.492 679.611 338.245C680.31 344.348 679.889 365.583 679.872 372.38C675.829 376.263 673.322 379.578 669.592 383.54C669.344 388.768 669.431 393.199 669.554 398.405C672.302 401.095 674.879 404.004 677.421 406.887L683.973 407.508C685.906 409.567 686.757 410.927 688.296 413.239C688.533 418.53 688.705 423.824 688.811 429.12C687.158 431.101 685.159 432.758 683.229 434.484C678.735 435.08 677.099 435.039 672.611 434.817C670.184 432.555 668.442 430.818 666.204 428.372L666.435 418.535C661.944 414.587 656.386 408.658 652.074 404.283C651.941 394.952 651.909 385.62 651.978 376.288C649.533 373.128 648.193 371.502 645.376 368.706C645.351 366.548 645.209 364.257 645.114 362.089C647.661 359.493 652.445 355.833 655.373 353.432L670.792 340.589C670.65 344.207 670.684 348.106 670.651 351.749C670.999 357.123 670.207 367.472 670.671 370.519Z"/><path fill="#14BE72" d="M659.465 368.001C660.622 368.405 661.88 368.41 663.041 368.017C663.055 378.567 662.652 391.351 663.177 401.69C663.658 403.735 675.234 414.114 675.5 414.117C695.511 414.367 682.269 437.524 671.792 425.258C670.057 423.227 671.615 418.232 672.008 417.175L672.244 416.555C668.165 412.072 663.888 407.774 659.427 403.671C659.49 392.697 659.482 381.722 659.404 370.747L659.465 368.001Z"/><path fill="#1E2522" d="M677.282 417.9C679.254 417.41 681.257 418.584 681.794 420.543C682.331 422.503 681.206 424.534 679.259 425.117C677.958 425.507 676.548 425.161 675.574 424.214C674.601 423.266 674.217 421.866 674.572 420.555C674.927 419.244 675.964 418.228 677.282 417.9Z"/><path fill="#15505C" d="M670.651 351.749C670.999 357.123 670.207 367.472 670.671 370.519C668.021 370.144 666.182 370.219 663.539 370.255C663.554 376.086 663.935 397.107 663.177 401.69C662.652 391.351 663.055 378.567 663.041 368.017C661.88 368.41 660.622 368.405 659.465 368.001L659.404 370.747C656.576 370.816 653.934 369.551 652.763 367.117C648.806 358.545 657.394 352.535 665.434 355.244C669.411 356.584 668.423 359.457 670.062 360.152C670.811 358.187 670.627 354.038 670.651 351.749Z"/><path fill="#24F1F3" d="M659.465 368.001C656.929 367.116 655.405 364.529 655.859 361.882C656.314 359.236 658.614 357.305 661.299 357.317C663.985 357.329 666.268 359.279 666.7 361.93C667.131 364.58 665.584 367.154 663.041 368.017C661.88 368.41 660.622 368.405 659.465 368.001Z"/><path fill="#1C1C1C" d="M648.654 593.999C648.338 603.22 647.92 612.437 647.399 621.648C647.133 626.538 646.123 638.877 646.877 642.934C648.592 652.155 651.922 663.399 654.493 672.559C655.565 675.605 655.756 676.342 656.288 679.526C657.502 682.355 658.628 687.651 659.405 690.838L637.628 690.909C637.646 687.614 637.853 678.765 637.155 676.034C635.738 669.861 632.718 663.981 630.825 657.981C626.306 643.653 619.783 629.206 615.883 614.758C627.02 608.586 637.495 600.621 648.654 593.999Z"/><path fill="#14BE72" d="M638.582 662.185C638.561 655.643 637.645 608.071 639.022 605.369L640.269 604.996C642.16 605.501 642.557 606.185 642.568 608.678C642.643 625.726 641.167 644.759 642.842 661.525C642.986 662.966 647.064 668.415 648.208 670.013C651.189 670.222 652.075 670.927 654.493 672.559C655.565 675.605 655.756 676.342 656.288 679.526C654.843 682.225 652.893 684.461 649.685 684.849C647.668 685.101 645.638 684.491 644.094 683.168C642.582 681.869 641.653 680.017 641.517 678.028C641.31 674.902 642.418 673.328 644.384 671.151C642.249 667.298 641.237 665.686 638.582 662.185Z"/><path fill="#1E2522" d="M648.034 673.746C649.345 673.487 650.694 673.963 651.553 674.987C652.413 676.011 652.647 677.421 652.164 678.668C651.682 679.915 650.56 680.801 649.235 680.98C647.27 681.246 645.449 679.902 645.124 677.945C644.8 675.989 646.088 674.129 648.034 673.746Z"/><path fill="#9244B4" d="M626.637 631.298C626.646 618.831 624.87 618.788 638.617 623.168C635.998 624.166 634.449 624.832 631.646 625.329C631.507 627.383 631.217 630.275 631.278 632.258C631.216 634.704 631.039 635.989 628.691 637.27C626.996 637.014 627.676 637.397 626.575 636.096C626.487 635.012 626.411 634.073 626.361 632.986L626.637 631.298Z"/><path fill="#7B3C9F" d="M626.637 631.298C626.646 618.831 624.87 618.788 638.617 623.168C635.998 624.166 634.449 624.832 631.646 625.329C630.648 623.5 631.309 623.951 629.823 623.045C626.239 623.843 627.499 628.638 626.637 631.298Z"/><path fill="#A152CB" d="M626.361 632.986C629.142 632.611 628.279 633.708 631.278 632.258C631.216 634.704 631.039 635.989 628.691 637.27C626.996 637.014 627.676 637.397 626.575 636.096C626.487 635.012 626.411 634.073 626.361 632.986Z"/><path fill="#1C1C1C" d="M413.457 595.915C413.713 598.451 404.365 625.137 402.757 628.999C408.758 642.7 415.69 656.231 421.407 670.122C424.36 677.296 428.625 684.135 431.2 691.448C427.687 691.49 410.466 691.946 407.809 691.147L407.452 689.884C405.636 677.325 402.204 673.067 396.013 662.307C389.666 651.267 383.157 640.321 376.488 629.472C388.603 618.686 402.125 607.3 413.457 595.915Z"/><path fill="#14BE72" d="M392.035 627.506C394.533 627.827 397.746 628.532 399.365 630.677C401.566 633.593 399.019 636.924 398.748 639.941C398.491 642.801 410.633 666.079 412.945 669.371C414.157 671.096 414.857 671.49 416.913 671.873C417.706 672.02 418.501 672.133 419.276 672.364C420.91 672.849 422.089 673.737 422.847 675.298C423.679 677.008 424.005 679.11 423.299 680.912C422.198 683.726 420.134 685.095 417.472 686.26C402.429 685 412.249 675.641 409.835 671.189C405.279 662.785 400.701 653.377 396.02 644.94C394.367 640.886 391.715 642.383 389.527 641.104C381.519 636.425 386.68 629.876 392.035 627.506Z"/><path fill="#1E2522" d="M392.464 631.254C393.824 631.099 395.161 631.687 395.967 632.792C396.773 633.898 396.922 635.352 396.359 636.598C395.795 637.845 394.605 638.692 393.242 638.818C391.167 639.009 389.325 637.493 389.112 635.421C388.899 633.348 390.394 631.489 392.464 631.254Z"/><path fill="#1E2522" d="M414.233 675.254C415.467 674.688 416.91 674.831 418.008 675.629C419.107 676.427 419.689 677.756 419.531 679.104C419.373 680.453 418.501 681.611 417.248 682.134C415.357 682.924 413.182 682.053 412.36 680.176C411.537 678.299 412.371 676.109 414.233 675.254Z"/><path fill="#1C1C1C" d="M324.443 618.532C329.925 618.536 336.471 618.389 341.849 618.658C347.853 625.204 354.585 631.659 360.304 638.161C361.9 654.069 364.931 669.998 367.1 685.835C367.336 687.564 367.256 690.896 366.315 692.42C361.612 694.145 352.031 693.426 346.749 693.225C346.789 688.766 347.156 678.772 346.632 674.942C345.582 667.273 339.538 656.299 337.028 648.645C336.003 645.52 333.003 639.122 332.538 636.343L332.593 635.73C334.363 636.783 336.578 636.731 338.296 635.597C340.014 634.462 340.932 632.445 340.659 630.405C340.386 628.364 338.97 626.659 337.014 626.017C335.482 625.513 333.806 625.725 332.447 626.593C331.089 627.462 330.192 628.894 330.006 630.496C328.115 626.525 326.26 622.537 324.443 618.532Z"/><path fill="#14BE72" d="M337.014 626.017C344.014 626.875 343.768 630.412 341.214 635.854C344.199 641.933 353.727 654.56 357.975 660.55C357.937 664.647 357.769 669.502 357.925 673.539C360.154 675.385 361.315 676.41 363.348 678.495C362.63 682.127 362.391 685.149 358.966 687.263C357.487 688.187 355.699 688.479 354.003 688.074C349.404 686.958 348.086 681.588 349.617 677.646C350.527 675.304 352.439 673.261 354.133 671.463L354.337 672.046C354.379 668.083 354.434 664.986 354.061 661.055C348.934 653.513 343.766 644.919 337.349 638.488C337.747 638.887 332.052 636.206 332.538 636.343L332.593 635.73C334.363 636.783 336.578 636.731 338.296 635.597C340.014 634.462 340.932 632.445 340.659 630.405C340.386 628.364 338.97 626.659 337.014 626.017Z"/><path fill="#24F1F3" d="M353.68 675.902C356.54 674.822 359.735 676.253 360.833 679.106C361.931 681.959 360.519 685.163 357.673 686.278C354.802 687.402 351.564 685.976 350.457 683.098C349.35 680.221 350.796 676.992 353.68 675.902Z"/><path fill="#1C1C1C" d="M282.023 444.43L282.571 443.698C284.522 441.136 296.534 427.292 298.946 426.958L302.797 429.692C305.448 431.144 308.071 432.646 310.664 434.199C307.615 442.054 300.439 459.909 298.565 466.986L298.427 467.491C299.323 469.644 300.272 471.842 301.087 474.021C301.719 475.169 302.363 476.042 302.437 477.328C303.354 480.381 303.986 481.897 305.255 484.787C298.065 484.537 290.28 484.606 283.042 484.531C283.065 482.07 282.947 479.68 282.848 477.223C282.433 476.205 282.452 475.184 282.344 474.048C282.896 464.935 282.348 453.569 282.023 444.43Z"/><path fill="#1C1C1C" d="M282.344 474.048C288.591 473.937 294.84 473.928 301.087 474.021C301.719 475.169 302.363 476.042 302.437 477.328C303.354 480.381 303.986 481.897 305.255 484.787C298.065 484.537 290.28 484.606 283.042 484.531C283.065 482.07 282.947 479.68 282.848 477.223C282.433 476.205 282.452 475.184 282.344 474.048Z"/><path fill="#14BE72" d="M282.344 474.048C288.591 473.937 294.84 473.928 301.087 474.021C301.719 475.169 302.363 476.042 302.437 477.328C295.907 477.412 289.376 477.377 282.848 477.223C282.433 476.205 282.452 475.184 282.344 474.048Z"/><path fill="#14BE72" d="M298.946 426.958L302.797 429.692L302.976 436.784C299.825 440.583 296.113 444.144 292.614 447.649C292.818 452.495 293.916 463.697 292.109 467.496C290.646 468.509 291.449 468.287 289.592 468.07C288.25 465.656 288.938 449.978 288.979 445.995C291.76 442.723 295.627 439.501 298.693 436.037C298.959 433.146 298.911 429.888 298.946 426.958Z"/><path fill="#1C1C1C" d="M580.499 637.497L601.543 637.503C601.257 655.502 601.672 673.458 601.146 691.502L581.65 691.502C581.806 673.267 581.958 655.696 580.499 637.497Z"/><path fill="#14BE72" d="M589.461 644.517C601.011 644.403 601.492 652.116 594.218 659.315L593.712 659.809C592.755 662.84 593.252 669.339 593.375 672.834C600.289 676.631 601.115 683.492 593.516 687.201C583.836 688.777 580.322 677.922 589.552 672.493C589.679 666.053 591.105 660.953 586.248 656.674C581.085 652.125 584.022 647.293 589.461 644.517Z"/><path fill="#1E2522" d="M590.057 648.25C592.087 647.565 594.294 648.621 595.032 650.632C595.771 652.644 594.772 654.877 592.78 655.668C591.445 656.198 589.928 655.961 588.817 655.051C587.706 654.14 587.177 652.698 587.434 651.285C587.692 649.872 588.696 648.71 590.057 648.25Z"/><path fill="#1E2522" d="M590.526 676.306C592.52 675.833 594.521 677.066 594.994 679.06C595.468 681.055 594.235 683.055 592.241 683.529C590.246 684.003 588.245 682.77 587.771 680.775C587.297 678.781 588.531 676.779 590.526 676.306Z"/><path fill="#1C1C1C" d="M697.246 525.496L725.879 525.457C723.581 535.234 718.959 538.968 712.232 546.555C709.434 550.611 705.883 554.225 703.065 558.073C701.765 560.339 701.187 560.785 699.259 562.593C698.291 564.426 689.225 575.401 687.525 577.455C688.131 573.288 687.911 566.174 687.898 561.808C687.808 552.871 687.829 543.934 687.963 534.997C690.681 531.815 694.232 528.474 697.246 525.496ZM702.539 546.084C705.131 545.381 706.812 542.881 706.487 540.216C706.162 537.551 703.929 535.528 701.244 535.469C698.56 535.409 696.239 537.329 695.795 539.978C695.351 542.626 696.92 545.198 699.477 546.016C700.47 546.334 701.534 546.358 702.539 546.084Z"/><path fill="#15505C" d="M699.098 560.595C698.716 556.539 699.54 553.238 698.721 549.083C697.159 548.065 694.251 546.286 693.396 544.561C689.451 536.597 698.861 528.74 706.358 531.803C709.389 533.042 710.315 537.271 711.222 540.278C711.553 542.139 711.636 545.312 712.232 546.555C709.434 550.611 705.883 554.225 703.065 558.073C701.765 560.339 701.187 560.785 699.259 562.593L699.098 560.595ZM702.539 546.084C705.131 545.381 706.812 542.881 706.487 540.216C706.162 537.551 703.929 535.528 701.244 535.469C698.56 535.409 696.239 537.329 695.795 539.978C695.351 542.626 696.92 545.198 699.477 546.016C700.47 546.334 701.534 546.358 702.539 546.084Z"/><path fill="#24F1F3" fill-opacity="0.98823529" d="M699.477 546.016C696.92 545.198 695.351 542.626 695.795 539.978C696.239 537.329 698.56 535.409 701.244 535.469C703.929 535.528 706.162 537.551 706.487 540.216C706.812 542.881 705.131 545.381 702.539 546.084C701.534 546.358 700.47 546.334 699.477 546.016Z"/><path fill="#1E2522" d="M711.222 540.278C711.553 542.139 711.636 545.312 712.232 546.555C709.434 550.611 705.883 554.225 703.065 558.073L702.921 555.062C703.111 551.427 702.176 549.325 705.545 547.37C709.52 545.063 709.274 543.941 711.222 540.278Z"/><path fill="#14BE72" d="M699.477 546.016C700.47 546.334 701.534 546.358 702.539 546.084C702.434 549.855 702.374 551.357 702.921 555.062L703.065 558.073C701.765 560.339 701.187 560.785 699.259 562.593L699.098 560.595C699.699 557.243 699.511 549.697 699.477 546.016Z"/><path fill="#14BE72" d="M769.486 378.434C775.354 379.014 776.605 380.934 776.034 386.591C781.457 393.015 787.529 400.563 793.964 405.994C795.642 407.411 798.677 405.52 800.312 407.101C804.872 411.513 802.067 418.659 795.462 418.089C793.007 417.881 791.364 415.343 789.903 413.563C783.107 412.983 775.902 411.759 769.111 410.729C772.484 413.979 776.254 418.359 779.752 421.261C782.949 423.25 787.772 423.56 789.907 427.048C791.715 430.002 786.847 433.608 784.369 434.85C777.151 434.173 777.316 431.099 777.734 425.038C774.556 422.43 770.489 417.536 767.652 414.335C761.176 414.552 756.082 409.951 760.78 404.589C761.827 403.4 763.331 402.714 764.916 402.704C767.918 402.705 769.389 404.646 771.196 406.7C777.651 408.123 785.639 409.35 792.213 410.352C787.72 404.222 778.747 395.425 773.232 389.757C764.043 389.937 761.598 383.73 769.486 378.434Z"/><path fill="#1C1C1C" d="M397.99 377.598C400.598 377.035 406.944 377.665 410.701 377.442C433.141 377.627 459.736 378.181 482.194 379.161C480.197 380.73 478.148 382.392 476.118 383.904C452.694 384.108 427.583 383.624 404.349 384.434C401.939 381.455 400.79 380.209 397.99 377.598Z"/><path fill="#1C1C1C" d="M306.572 488.955L309.324 492.461L306.124 495.775C304.566 497.848 304.343 498.172 302.142 499.506C299.585 503.096 297.016 504.973 293.879 507.989C292.193 510.533 291.211 511.149 288.688 512.898C287.202 515.079 285.56 516.267 283.557 517.984C283.594 512.062 283.672 505.205 283.254 499.368C282.911 498.213 282.969 497.217 282.914 495.989C283.152 493.284 283.2 491.685 283.137 488.97L306.572 488.955Z"/><path fill="#1E2522" d="M283.254 499.368C289.108 499.372 296.418 499.196 302.142 499.506C299.585 503.096 297.016 504.973 293.879 507.989C292.193 510.533 291.211 511.149 288.688 512.898C287.202 515.079 285.56 516.267 283.557 517.984C283.594 512.062 283.672 505.205 283.254 499.368Z"/><path fill="#14BE72" d="M288.688 512.898C288.479 510.05 287.876 506.517 290.09 504.402L291.307 504.466C292.876 505.466 293.071 506.307 293.879 507.989C292.193 510.533 291.211 511.149 288.688 512.898Z"/><path fill="#14BE72" d="M282.914 495.989C290.494 495.987 298.595 496.119 306.124 495.775C304.566 497.848 304.343 498.172 302.142 499.506C296.418 499.196 289.108 499.372 283.254 499.368C282.911 498.213 282.969 497.217 282.914 495.989Z"/><path fill="#1C1C1C" d="M319.033 430.757L319.927 431.274C321.2 437.73 317.732 445.419 314.488 450.88C314.43 453.007 315.041 457.455 314.412 459.236C313.534 461.721 306.321 466.928 309.7 470.363C310.15 469.067 310.375 468.243 310.71 466.935C312.89 465.153 316.593 463.534 318.838 466.157C319.567 467.018 319.826 468.182 319.533 469.27C318.936 471.433 316.442 472.421 314.496 473.486L314.617 484.375L314.92 495.061C312.247 487.318 306.07 474.647 305.522 466.931C305.128 461.395 310.849 450.928 312.549 445.224C314.34 439.217 314.228 435.335 319.033 430.757Z"/><path fill="#201C21" d="M324.74 609.822C332.094 610.16 340.318 609.972 347.744 609.949C354.476 616.433 360.932 623.54 367.932 629.727L364.101 633.157C363.536 633.614 363.908 633.391 362.89 633.636C360.457 631.931 347.144 617.892 343.839 614.589C336.774 614.866 329.702 614.925 322.634 614.765L324.74 609.822Z"/><path fill="#1C1C1C" d="M601.057 622.235L601.576 622.406C602.185 624.098 601.759 630.939 601.689 633.179C594.453 633.077 587.94 633.376 580.462 633.136L579.776 632.667C579.483 630.302 579.131 627.945 578.721 625.598C586.145 624.344 593.592 623.223 601.057 622.235Z"/><path fill="#201C21" d="M323.885 427.215L332.49 420.049L332.818 434.31C329.016 438.719 325.667 441.105 325.51 446.639L324.545 445.576C322.333 440.615 323.857 439.053 324.054 433.757C324.134 431.603 324.005 429.368 323.885 427.215Z"/><path fill="#24F1F3" fill-opacity="0.98823529" d="M330.006 630.496C330.192 628.894 331.089 627.462 332.447 626.593C333.806 625.725 335.482 625.513 337.014 626.017C338.97 626.659 340.386 628.364 340.659 630.405C340.932 632.445 340.014 634.462 338.296 635.597C336.578 636.731 334.363 636.783 332.593 635.73C330.774 634.648 329.761 632.598 330.006 630.496Z"/><path fill="#1C1C1C" d="M819.907 412.441C822.762 413.737 825.646 414.967 828.558 416.129C828.437 418.854 828.51 421.666 828.533 424.4C825.99 422.278 822.154 419.947 819.296 418.098L819.907 412.441Z"/><path fill="#201C21" d="M487.537 552.775C489.483 552.124 491.594 553.129 492.318 555.048C493.041 556.968 492.117 559.116 490.226 559.912C488.938 560.453 487.456 560.248 486.365 559.375C485.273 558.502 484.745 557.103 484.99 555.727C485.234 554.351 486.211 553.218 487.537 552.775Z"/><path fill="#201C21" d="M425.657 540.76C427.498 539.755 429.804 540.439 430.801 542.284C431.797 544.13 431.103 546.433 429.254 547.422C427.415 548.404 425.129 547.715 424.139 545.881C423.148 544.047 423.827 541.758 425.657 540.76Z"/><path fill="#201C21" d="M331.635 494.788C333.496 494.308 335.42 495.313 336.09 497.115C336.76 498.917 335.96 500.934 334.238 501.787C332.952 502.424 331.416 502.273 330.28 501.397C329.143 500.521 328.605 499.075 328.893 497.669C329.181 496.264 330.245 495.146 331.635 494.788Z"/><path fill="#201C21" d="M375.054 525.741C377.006 525.203 379.031 526.319 379.619 528.256C380.208 530.193 379.146 532.246 377.225 532.885C375.937 533.314 374.518 533.009 373.519 532.091C372.519 531.172 372.097 529.783 372.416 528.464C372.736 527.144 373.746 526.102 375.054 525.741Z"/><path fill="#201C21" d="M630.933 386.762C632.705 385.845 634.884 386.488 635.875 388.22C636.865 389.952 636.314 392.156 634.625 393.218C633.468 393.946 632.005 393.981 630.814 393.309C629.624 392.637 628.897 391.367 628.922 390C628.947 388.633 629.719 387.39 630.933 386.762Z"/><path fill="#201C21" d="M387.148 428.333C389.074 427.867 391.025 428.997 391.58 430.899C392.134 432.801 391.096 434.802 389.221 435.444C387.929 435.886 386.499 435.583 385.498 434.654C384.498 433.725 384.088 432.321 384.433 431C384.778 429.679 385.821 428.654 387.148 428.333Z"/><path fill="#311E33" d="M383.973 376.957C390.614 376.935 404.386 376.575 410.701 377.442C406.944 377.665 400.598 377.035 397.99 377.598C394.906 378.858 387.297 377.686 383.973 376.957Z"/></svg>